<svg width="250" height="78" viewBox="0 0 250 78" fill="none" xmlns="http://www.w3.org/2000/svg">
<path d="M62.8722 39C63.5188 38.3635 64.139 37.7257 64.7212 37.0872C70.3035 30.9661 72.2529 25.3749 70.2097 21.3437C69.0336 19.0229 66.0246 16.2564 58.37 16.2564C55.4525 16.2564 52.1897 16.6616 48.716 17.4209C48.2198 15.5143 47.6575 13.7068 47.0266 12.0304C44.1067 4.27237 40.0131 0 35.5003 0C30.9876 0 26.894 4.27237 23.9734 12.0304C23.3422 13.7068 22.7799 15.5143 22.284 17.4209C18.8103 16.6616 15.5475 16.2564 12.63 16.2564C4.97536 16.2564 1.96639 19.0229 0.790337 21.3437C-1.25286 25.3749 0.696499 30.9658 6.27881 37.0872C6.86102 37.7257 7.48158 38.3635 8.12783 39C7.48124 39.6365 6.86102 40.2743 6.27881 40.9128C0.696499 47.0339 -1.25286 52.6251 0.790337 56.6563C1.96639 58.9771 4.97536 61.7436 12.63 61.7436C15.5475 61.7436 18.8103 61.3384 22.284 60.5791C22.7802 62.4857 23.3425 64.2932 23.9734 65.9696C26.894 73.7276 30.9876 78 35.5003 78C40.0131 78 44.1067 73.7276 47.027 65.9696C47.6581 64.2932 48.2205 62.4857 48.7164 60.5787C52.1901 61.338 55.4528 61.7432 58.3704 61.7436C58.371 61.7436 58.3714 61.7436 58.3721 61.7436C66.0246 61.7436 69.0336 58.9771 70.2097 56.6563C72.2529 52.6251 70.3035 47.0342 64.7212 40.9128C64.1393 40.274 63.5188 39.6361 62.8722 39ZM58.3707 19.6875C62.9876 19.6875 66.1079 20.8273 67.1569 22.8969C68.4887 25.5251 66.6794 29.8534 62.1934 34.7726C61.617 35.4046 61.0026 36.0362 60.3584 36.6665C57.5656 34.2236 54.3412 31.8359 50.8058 29.5882C50.5116 26.5147 50.0715 23.5595 49.4976 20.7769C52.724 20.0701 55.7337 19.6875 58.3707 19.6875ZM41.0792 50.0079C39.2261 50.9504 37.3596 51.8219 35.5003 52.6207C33.6407 51.8219 31.7742 50.9504 29.9215 50.0079C27.6789 48.8671 25.5179 47.6593 23.4573 46.4032C23.2754 44.0406 23.1775 41.5682 23.1775 38.9993C23.1775 36.4308 23.2754 33.958 23.4573 31.5954C25.5179 30.3393 27.6789 29.1315 29.9215 27.9911C31.7746 27.0485 33.6411 26.177 35.5007 25.3783C37.3603 26.177 39.2264 27.0485 41.0796 27.9911C43.3221 29.1319 45.4831 30.3396 47.5438 31.5957C47.7256 33.9584 47.8236 36.4308 47.8236 38.9997C47.8236 41.5682 47.7256 44.0409 47.5438 46.4036C45.4827 47.6597 43.3214 48.8674 41.0792 50.0079ZM47.1143 50.6385C46.8585 52.6612 46.54 54.585 46.1677 56.3969C44.1399 55.8383 42.0519 55.1665 39.9296 54.3853C40.8296 53.9602 41.7299 53.5248 42.63 53.0671C44.1625 52.2879 45.6574 51.475 47.1143 50.6385ZM31.0711 54.3856C28.9488 55.1669 26.8608 55.8387 24.833 56.3973C24.4607 54.585 24.1419 52.6615 23.8864 50.6385C25.3433 51.475 26.8382 52.2875 28.3707 53.0674C29.2708 53.5255 30.1711 53.9609 31.0711 54.3856ZM19.8836 44.1041C17.4486 42.4527 15.1989 40.7406 13.1848 38.9997C15.1992 37.2591 17.4486 35.547 19.8836 33.8952C19.799 35.5748 19.7524 37.2779 19.7524 38.9997C19.7524 40.7214 19.799 42.4246 19.8836 44.1041ZM23.886 27.3611C24.1419 25.3381 24.4604 23.4147 24.8326 21.6024C26.8604 22.161 28.9485 22.8331 31.0708 23.614C30.1708 24.0391 29.2704 24.4745 28.3704 24.9322C26.8378 25.7118 25.3429 26.5246 23.886 27.3611ZM39.9292 23.614C42.0515 22.8328 44.1396 22.161 46.1674 21.6024C46.5396 23.4147 46.8585 25.3381 47.114 27.3611C45.6571 26.5246 44.1622 25.7121 42.6296 24.9322C41.7296 24.4742 40.8292 24.0391 39.9292 23.614ZM51.1168 33.8956C53.5518 35.547 55.8015 37.2591 57.8156 39C55.8011 40.7406 53.5518 42.4527 51.1168 44.1044C51.2014 42.4249 51.2479 40.7217 51.2479 39C51.2479 37.2783 51.2014 35.5751 51.1168 33.8956ZM35.5003 3.43107C39.1052 3.43107 42.9642 9.0203 45.3845 18.243C42.1984 19.1138 38.8764 20.2584 35.5003 21.6535C32.1242 20.2584 28.8026 19.1135 25.6162 18.243C28.0365 9.0203 31.8955 3.43107 35.5003 3.43107ZM8.80695 34.7726C4.32089 29.8538 2.51195 25.5251 3.84383 22.8969C4.89282 20.8273 8.0131 19.6875 12.63 19.6875C15.267 19.6875 18.2763 20.0701 21.5028 20.7769C20.9288 23.5598 20.4891 26.5147 20.1945 29.5882C16.6592 31.8359 13.4348 34.2236 10.6419 36.6665C9.99773 36.0362 9.38333 35.4046 8.80695 34.7726ZM12.6296 58.3121C8.01276 58.3121 4.89248 57.1723 3.84349 55.1027C2.51161 52.4745 4.32089 48.1462 8.80695 43.2271C9.38333 42.5951 9.99773 41.9634 10.6419 41.3331C13.4348 43.7761 16.6592 46.1637 20.1945 48.4114C20.4887 51.485 20.9288 54.4402 21.5028 57.2228C18.2763 57.9296 15.2667 58.3121 12.6296 58.3121ZM35.5003 74.5686C31.8955 74.5686 28.0365 68.9794 25.6162 59.7566C28.8023 58.8858 32.1242 57.7412 35.5003 56.3458C38.8761 57.7409 42.1981 58.8858 45.3845 59.7563C42.9639 68.9794 39.1052 74.5686 35.5003 74.5686ZM67.1565 55.1027C66.1075 57.1727 62.9883 58.3121 58.3724 58.3121C58.3721 58.3121 58.371 58.3121 58.3707 58.3121C55.7337 58.3121 52.724 57.9292 49.4976 57.2228C50.0712 54.4398 50.5113 51.485 50.8055 48.4114C54.3408 46.1637 57.5652 43.7761 60.3581 41.3331C61.0023 41.9634 61.6167 42.5951 62.193 43.2271C66.6795 48.1459 68.4884 52.4745 67.1565 55.1027ZM43.0276 39C43.0276 43.1581 39.6508 46.5412 35.5003 46.5412C31.3496 46.5412 27.9731 43.1581 27.9731 39C27.9731 34.8419 31.3499 31.4588 35.5003 31.4588C39.6508 31.4588 43.0276 34.8415 43.0276 39Z" fill="#CB7D70"/>
<path d="M93.048 29.572V37.96H102.192V40.66H93.048V49.3H103.272V52H89.772V26.872H103.272V29.572H93.048ZM118.525 52L113.845 44.656L109.345 52H105.925L112.297 42.208L105.925 32.272H109.633L114.313 39.58L118.777 32.272H122.197L115.861 42.028L122.233 52H118.525ZM128.732 35.908C129.38 34.78 130.34 33.844 131.612 33.1C132.908 32.332 134.408 31.948 136.112 31.948C137.864 31.948 139.448 32.368 140.864 33.208C142.304 34.048 143.432 35.236 144.248 36.772C145.064 38.284 145.472 40.048 145.472 42.064C145.472 44.056 145.064 45.832 144.248 47.392C143.432 48.952 142.304 50.164 140.864 51.028C139.448 51.892 137.864 52.324 136.112 52.324C134.432 52.324 132.944 51.952 131.648 51.208C130.376 50.44 129.404 49.492 128.732 48.364V61.36H125.456V32.272H128.732V35.908ZM142.124 42.064C142.124 40.576 141.824 39.28 141.224 38.176C140.624 37.072 139.808 36.232 138.776 35.656C137.768 35.08 136.652 34.792 135.428 34.792C134.228 34.792 133.112 35.092 132.08 35.692C131.072 36.268 130.256 37.12 129.632 38.248C129.032 39.352 128.732 40.636 128.732 42.1C128.732 43.588 129.032 44.896 129.632 46.024C130.256 47.128 131.072 47.98 132.08 48.58C133.112 49.156 134.228 49.444 135.428 49.444C136.652 49.444 137.768 49.156 138.776 48.58C139.808 47.98 140.624 47.128 141.224 46.024C141.824 44.896 142.124 43.576 142.124 42.064ZM153.06 35.476C153.636 34.348 154.452 33.472 155.508 32.848C156.588 32.224 157.896 31.912 159.432 31.912V35.296H158.568C154.896 35.296 153.06 37.288 153.06 41.272V52H149.784V32.272H153.06V35.476ZM181.213 41.38C181.213 42.004 181.177 42.664 181.105 43.36H165.337C165.457 45.304 166.117 46.828 167.317 47.932C168.541 49.012 170.017 49.552 171.745 49.552C173.161 49.552 174.337 49.228 175.273 48.58C176.233 47.908 176.905 47.02 177.289 45.916H180.817C180.289 47.812 179.233 49.36 177.649 50.56C176.065 51.736 174.097 52.324 171.745 52.324C169.873 52.324 168.193 51.904 166.705 51.064C165.241 50.224 164.089 49.036 163.249 47.5C162.409 45.94 161.989 44.14 161.989 42.1C161.989 40.06 162.397 38.272 163.213 36.736C164.029 35.2 165.169 34.024 166.633 33.208C168.121 32.368 169.825 31.948 171.745 31.948C173.617 31.948 175.273 32.356 176.713 33.172C178.153 33.988 179.257 35.116 180.025 36.556C180.817 37.972 181.213 39.58 181.213 41.38ZM177.829 40.696C177.829 39.448 177.553 38.38 177.001 37.492C176.449 36.58 175.693 35.896 174.733 35.44C173.797 34.96 172.753 34.72 171.601 34.72C169.945 34.72 168.529 35.248 167.353 36.304C166.201 37.36 165.541 38.824 165.373 40.696H177.829ZM184.314 42.064C184.314 40.048 184.722 38.284 185.538 36.772C186.354 35.236 187.47 34.048 188.886 33.208C190.326 32.368 191.922 31.948 193.674 31.948C195.402 31.948 196.902 32.32 198.174 33.064C199.446 33.808 200.394 34.744 201.018 35.872V32.272H204.33V52H201.018V48.328C200.37 49.48 199.398 50.44 198.102 51.208C196.83 51.952 195.342 52.324 193.638 52.324C191.886 52.324 190.302 51.892 188.886 51.028C187.47 50.164 186.354 48.952 185.538 47.392C184.722 45.832 184.314 44.056 184.314 42.064ZM201.018 42.1C201.018 40.612 200.718 39.316 200.118 38.212C199.518 37.108 198.702 36.268 197.67 35.692C196.662 35.092 195.546 34.792 194.322 34.792C193.098 34.792 191.982 35.08 190.974 35.656C189.966 36.232 189.162 37.072 188.562 38.176C187.962 39.28 187.662 40.576 187.662 42.064C187.662 43.576 187.962 44.896 188.562 46.024C189.162 47.128 189.966 47.98 190.974 48.58C191.982 49.156 193.098 49.444 194.322 49.444C195.546 49.444 196.662 49.156 197.67 48.58C198.702 47.98 199.518 47.128 200.118 46.024C200.718 44.896 201.018 43.588 201.018 42.1ZM208.642 42.1C208.642 40.06 209.05 38.284 209.866 36.772C210.682 35.236 211.81 34.048 213.25 33.208C214.714 32.368 216.382 31.948 218.254 31.948C220.678 31.948 222.67 32.536 224.23 33.712C225.814 34.888 226.858 36.52 227.362 38.608H223.834C223.498 37.408 222.838 36.46 221.854 35.764C220.894 35.068 219.694 34.72 218.254 34.72C216.382 34.72 214.87 35.368 213.718 36.664C212.566 37.936 211.99 39.748 211.99 42.1C211.99 44.476 212.566 46.312 213.718 47.608C214.87 48.904 216.382 49.552 218.254 49.552C219.694 49.552 220.894 49.216 221.854 48.544C222.814 47.872 223.474 46.912 223.834 45.664H227.362C226.834 47.68 225.778 49.3 224.194 50.524C222.61 51.724 220.63 52.324 218.254 52.324C216.382 52.324 214.714 51.904 213.25 51.064C211.81 50.224 210.682 49.036 209.866 47.5C209.05 45.964 208.642 44.164 208.642 42.1ZM235.729 34.972V46.6C235.729 47.56 235.933 48.244 236.341 48.652C236.749 49.036 237.457 49.228 238.465 49.228H240.877V52H237.925C236.101 52 234.733 51.58 233.821 50.74C232.909 49.9 232.453 48.52 232.453 46.6V34.972H229.897V32.272H232.453V27.304H235.729V32.272H240.877V34.972H235.729Z" fill="white"/>
</svg>
